<svg width="16" height="15" viewBox="0 0 16 15" fill="none" xmlns="http://www.w3.org/2000/svg">
<g filter="url(#filter0_d_1_4687)">
<path d="M8 0.171875C6.14598 0.171875 5.9135 0.179734 5.18537 0.212956C4.45875 0.246125 3.9625 0.36151 3.52825 0.530278C3.07933 0.704738 2.69863 0.938164 2.31911 1.31768C1.9396 1.69719 1.70618 2.0779 1.53172 2.52681C1.36295 2.96103 1.24756 3.45729 1.21439 4.1839C1.18117 4.91204 1.17334 5.14451 1.17334 6.99853C1.17334 8.85252 1.18117 9.085 1.21439 9.81314C1.24756 10.5398 1.36295 11.036 1.53172 11.4702C1.70618 11.9191 1.9396 12.2998 2.31911 12.6794C2.69863 13.0589 3.07933 13.2923 3.52825 13.4668C3.9625 13.6355 4.45875 13.7509 5.18537 13.7841C5.9135 13.8173 6.14598 13.8252 8 13.8252C9.85399 13.8252 10.0865 13.8173 10.8146 13.7841C11.5412 13.7509 12.0375 13.6355 12.4717 13.4668C12.9206 13.2923 13.3013 13.0589 13.6809 12.6794C14.0604 12.2998 14.2938 11.9191 14.4682 11.4702C14.637 11.036 14.7524 10.5398 14.7855 9.81314C14.8188 9.085 14.8266 8.85252 14.8266 6.99853C14.8266 5.14451 14.8188 4.91204 14.7855 4.1839C14.7524 3.45729 14.637 2.96103 14.4682 2.52681C14.2938 2.0779 14.0604 1.69719 13.6809 1.31768C13.3013 0.938164 12.9206 0.704738 12.4717 0.530278C12.0375 0.36151 11.5412 0.246125 10.8146 0.212956C10.0865 0.179734 9.85399 0.171875 8 0.171875ZM8 1.40193C9.82277 1.40193 10.0387 1.40886 10.7585 1.44171C11.4241 1.47208 11.7856 1.5833 12.0261 1.67676C12.3448 1.8006 12.5722 1.94855 12.8111 2.18743C13.05 2.4263 13.1979 2.65374 13.3217 2.97236C13.4152 3.21291 13.5264 3.57438 13.5568 4.23997C13.5896 4.95981 13.5966 5.17573 13.5966 6.99853C13.5966 8.82131 13.5896 9.03723 13.5568 9.75707C13.5264 10.4227 13.4152 10.7841 13.3217 11.0247C13.1979 11.3433 13.05 11.5707 12.8111 11.8096C12.5722 12.0485 12.3448 12.1964 12.0261 12.3203C11.7856 12.4138 11.4241 12.525 10.7585 12.5553C10.0388 12.5882 9.82291 12.5951 8 12.5951C6.17706 12.5951 5.96119 12.5882 5.24143 12.5553C4.57584 12.525 4.21438 12.4138 3.97382 12.3203C3.65517 12.1964 3.42776 12.0485 3.18886 11.8096C2.94999 11.5707 2.80204 11.3433 2.67822 11.0247C2.58473 10.7841 2.47352 10.4227 2.44314 9.75707C2.4103 9.03723 2.40336 8.82131 2.40336 6.99853C2.40336 5.17573 2.4103 4.95981 2.44314 4.23997C2.47352 3.57438 2.58473 3.21291 2.67822 2.97236C2.80204 2.65374 2.94999 2.4263 3.18886 2.18743C3.42776 1.94855 3.65517 1.8006 3.97382 1.67676C4.21438 1.5833 4.57584 1.47208 5.24143 1.44171C5.96128 1.40886 6.1772 1.40193 8 1.40193Z" fill="#6D747A"/>
<path d="M8.00021 9.28063C6.74344 9.28063 5.72465 8.26184 5.72465 7.0051C5.72465 5.74833 6.74344 4.72954 8.00021 4.72954C9.25696 4.72954 10.2757 5.74833 10.2757 7.0051C10.2757 8.26184 9.25696 9.28063 8.00021 9.28063ZM8.00021 3.49951C6.06411 3.49951 4.49463 5.069 4.49463 7.0051C4.49463 8.94117 6.06411 10.5107 8.00021 10.5107C9.93629 10.5107 11.5058 8.94117 11.5058 7.0051C11.5058 5.069 9.93629 3.49951 8.00021 3.49951Z" fill="#6D747A"/>
<path d="M12.4631 3.35068C12.4631 3.80311 12.0963 4.16986 11.6439 4.16986C11.1915 4.16986 10.8247 3.80311 10.8247 3.35068C10.8247 2.89824 11.1915 2.53149 11.6439 2.53149C12.0963 2.53149 12.4631 2.89824 12.4631 3.35068Z" fill="#6D747A"/>
</g>
<defs>
<filter id="filter0_d_1_4687" x="-2.82666" y="0.171875" width="21.6533" height="21.6533" filterUnits="userSpaceOnUse" color-interpolation-filters="sRGB">
<feFlood flood-opacity="0" result="BackgroundImageFix"/>
<feColorMatrix in="SourceAlpha" type="matrix" values="0 0 0 0 0 0 0 0 0 0 0 0 0 0 0 0 0 0 127 0" result="hardAlpha"/>
<feOffset dy="4"/>
<feGaussianBlur stdDeviation="2"/>
<feComposite in2="hardAlpha" operator="out"/>
<feColorMatrix type="matrix" values="0 0 0 0 0 0 0 0 0 0 0 0 0 0 0 0 0 0 0.25 0"/>
<feBlend mode="normal" in2="BackgroundImageFix" result="effect1_dropShadow_1_4687"/>
<feBlend mode="normal" in="SourceGraphic" in2="effect1_dropShadow_1_4687" result="shape"/>
</filter>
</defs>
</svg>
