<svg width="24" height="22" viewBox="0 0 24 22" fill="none" xmlns="http://www.w3.org/2000/svg">
<g filter="url(#filter0_d_28202_522)">
<path d="M12.0001 20C13.1001 20 14.0001 19.1 14.0001 18H10.0001C10.0001 19.1 10.8901 20 12.0001 20ZM18.0001 14V9C18.0001 5.93 16.3601 3.36 13.5001 2.68V2C13.5001 1.17 12.8301 0.5 12.0001 0.5C11.1701 0.5 10.5001 1.17 10.5001 2V2.68C7.63005 3.36 6.00005 5.92 6.00005 9V14L4.71005 15.29C4.08005 15.92 4.52005 17 5.41005 17H18.5801C19.4701 17 19.9201 15.92 19.2901 15.29L18.0001 14Z" fill="#8064A2"/>
</g>
<defs>
<filter id="filter0_d_28202_522" x="0.413574" y="0.5" width="23.1704" height="27.5" filterUnits="userSpaceOnUse" color-interpolation-filters="sRGB">
<feFlood flood-opacity="0" result="BackgroundImageFix"/>
<feColorMatrix in="SourceAlpha" type="matrix" values="0 0 0 0 0 0 0 0 0 0 0 0 0 0 0 0 0 0 127 0" result="hardAlpha"/>
<feOffset dy="4"/>
<feGaussianBlur stdDeviation="2"/>
<feComposite in2="hardAlpha" operator="out"/>
<feColorMatrix type="matrix" values="0 0 0 0 0 0 0 0 0 0 0 0 0 0 0 0 0 0 0.25 0"/>
<feBlend mode="normal" in2="BackgroundImageFix" result="effect1_dropShadow_28202_522"/>
<feBlend mode="normal" in="SourceGraphic" in2="effect1_dropShadow_28202_522" result="shape"/>
</filter>
</defs>
</svg>
