<svg width="16" height="14" viewBox="0 0 16 14" fill="none" xmlns="http://www.w3.org/2000/svg">
<rect width="16" height="14" fill="white"/>
<g clip-path="url(#clip0_0_1)">
<rect width="1440" height="3771" transform="translate(-697 -34)" fill="white"/>
<g filter="url(#filter0_d_0_1)">
<rect x="-697" y="-34" width="1440" height="80" fill="white"/>
</g>
<rect x="-271.5" y="-13.5" width="299" height="39" rx="7.5" fill="#F8F9FA" stroke="#EBEDF0"/>
<path d="M-12 -14H20C24.4183 -14 28 -10.4183 28 -6V18C28 22.4183 24.4183 26 20 26H-12V-14Z" fill="#8064A2"/>
<path d="M6.83333 0C4.17185 0 2 2.17185 2 4.83333C2 7.49481 4.17185 9.66667 6.83333 9.66667C7.92439 9.66667 8.92964 9.29767 9.74023 8.68359L12.862 11.8047C12.9234 11.8687 12.997 11.9198 13.0784 11.9549C13.1598 11.9901 13.2474 12.0087 13.3361 12.0096C13.4248 12.0105 13.5128 11.9937 13.5949 11.9602C13.6771 11.9267 13.7517 11.8771 13.8144 11.8144C13.8771 11.7517 13.9267 11.6771 13.9602 11.5949C13.9937 11.5128 14.0105 11.4248 14.0096 11.3361C14.0087 11.2474 13.9901 11.1598 13.9549 11.0784C13.9198 10.997 13.8687 10.9234 13.8047 10.862L10.6836 7.74023C11.2977 6.92964 11.6667 5.92439 11.6667 4.83333C11.6667 2.17185 9.49481 0 6.83333 0ZM6.83333 1.33333C8.77423 1.33333 10.3333 2.89244 10.3333 4.83333C10.3333 5.76524 9.97135 6.60687 9.38281 7.23242C9.32552 7.2739 9.2752 7.32422 9.23372 7.38151C8.60803 7.9708 7.7659 8.33333 6.83333 8.33333C4.89244 8.33333 3.33333 6.77423 3.33333 4.83333C3.33333 2.89244 4.89244 1.33333 6.83333 1.33333Z" fill="white"/>
</g>
<g clip-path="url(#clip1_0_1)">
<rect width="1440" height="3771" transform="translate(-697 -34)" fill="white"/>
<g filter="url(#filter1_d_0_1)">
<rect x="-697" y="-34" width="1440" height="80" fill="white"/>
</g>
<rect x="-271.5" y="-13.5" width="299" height="39" rx="7.5" fill="#F8F9FA" stroke="#EBEDF0"/>
<path d="M-12 -14H20C24.4183 -14 28 -10.4183 28 -6V18C28 22.4183 24.4183 26 20 26H-12V-14Z" fill="#8064A2"/>
<g clip-path="url(#clip2_0_1)">
<g filter="url(#filter2_dd_0_1)">
<path d="M6.83333 0C4.17185 0 2 2.17185 2 4.83333C2 7.49481 4.17185 9.66667 6.83333 9.66667C7.92439 9.66667 8.92964 9.29767 9.74023 8.68359L12.862 11.8047C12.9234 11.8687 12.997 11.9198 13.0784 11.9549C13.1598 11.9901 13.2474 12.0087 13.3361 12.0096C13.4248 12.0105 13.5128 11.9937 13.5949 11.9602C13.6771 11.9267 13.7517 11.8771 13.8144 11.8144C13.8771 11.7517 13.9267 11.6771 13.9602 11.5949C13.9937 11.5128 14.0105 11.4248 14.0096 11.3361C14.0087 11.2474 13.9901 11.1598 13.9549 11.0784C13.9198 10.997 13.8687 10.9234 13.8047 10.862L10.6836 7.74023C11.2977 6.92964 11.6667 5.92439 11.6667 4.83333C11.6667 2.17185 9.49481 0 6.83333 0ZM6.83333 1.33333C8.77423 1.33333 10.3333 2.89244 10.3333 4.83333C10.3333 5.76524 9.97135 6.60687 9.38281 7.23242C9.32552 7.2739 9.2752 7.32422 9.23372 7.38151C8.60803 7.9708 7.7659 8.33333 6.83333 8.33333C4.89244 8.33333 3.33333 6.77423 3.33333 4.83333C3.33333 2.89244 4.89244 1.33333 6.83333 1.33333Z" fill="white"/>
</g>
</g>
</g>
<defs>
<filter id="filter0_d_0_1" x="-709" y="-44" width="1464" height="104" filterUnits="userSpaceOnUse" color-interpolation-filters="sRGB">
<feFlood flood-opacity="0" result="BackgroundImageFix"/>
<feColorMatrix in="SourceAlpha" type="matrix" values="0 0 0 0 0 0 0 0 0 0 0 0 0 0 0 0 0 0 127 0" result="hardAlpha"/>
<feOffset dy="2"/>
<feGaussianBlur stdDeviation="6"/>
<feComposite in2="hardAlpha" operator="out"/>
<feColorMatrix type="matrix" values="0 0 0 0 0 0 0 0 0 0 0 0 0 0 0 0 0 0 0.08 0"/>
<feBlend mode="normal" in2="BackgroundImageFix" result="effect1_dropShadow_0_1"/>
<feBlend mode="normal" in="SourceGraphic" in2="effect1_dropShadow_0_1" result="shape"/>
</filter>
<filter id="filter1_d_0_1" x="-709" y="-44" width="1464" height="104" filterUnits="userSpaceOnUse" color-interpolation-filters="sRGB">
<feFlood flood-opacity="0" result="BackgroundImageFix"/>
<feColorMatrix in="SourceAlpha" type="matrix" values="0 0 0 0 0 0 0 0 0 0 0 0 0 0 0 0 0 0 127 0" result="hardAlpha"/>
<feOffset dy="2"/>
<feGaussianBlur stdDeviation="6"/>
<feComposite in2="hardAlpha" operator="out"/>
<feColorMatrix type="matrix" values="0 0 0 0 0 0 0 0 0 0 0 0 0 0 0 0 0 0 0.08 0"/>
<feBlend mode="normal" in2="BackgroundImageFix" result="effect1_dropShadow_0_1"/>
<feBlend mode="normal" in="SourceGraphic" in2="effect1_dropShadow_0_1" result="shape"/>
</filter>
<filter id="filter2_dd_0_1" x="-2" y="0" width="20.0098" height="20.0096" filterUnits="userSpaceOnUse" color-interpolation-filters="sRGB">
<feFlood flood-opacity="0" result="BackgroundImageFix"/>
<feColorMatrix in="SourceAlpha" type="matrix" values="0 0 0 0 0 0 0 0 0 0 0 0 0 0 0 0 0 0 127 0" result="hardAlpha"/>
<feOffset dy="4"/>
<feGaussianBlur stdDeviation="2"/>
<feComposite in2="hardAlpha" operator="out"/>
<feColorMatrix type="matrix" values="0 0 0 0 0 0 0 0 0 0 0 0 0 0 0 0 0 0 0.25 0"/>
<feBlend mode="normal" in2="BackgroundImageFix" result="effect1_dropShadow_0_1"/>
<feColorMatrix in="SourceAlpha" type="matrix" values="0 0 0 0 0 0 0 0 0 0 0 0 0 0 0 0 0 0 127 0" result="hardAlpha"/>
<feOffset dy="4"/>
<feGaussianBlur stdDeviation="2"/>
<feComposite in2="hardAlpha" operator="out"/>
<feColorMatrix type="matrix" values="0 0 0 0 0 0 0 0 0 0 0 0 0 0 0 0 0 0 0.25 0"/>
<feBlend mode="normal" in2="effect1_dropShadow_0_1" result="effect2_dropShadow_0_1"/>
<feBlend mode="normal" in="SourceGraphic" in2="effect2_dropShadow_0_1" result="shape"/>
</filter>
<clipPath id="clip0_0_1">
<rect width="1440" height="3771" fill="white" transform="translate(-697 -34)"/>
</clipPath>
<clipPath id="clip1_0_1">
<rect width="1440" height="3771" fill="white" transform="translate(-697 -34)"/>
</clipPath>
<clipPath id="clip2_0_1">
<path d="M0 -2H8C12.4183 -2 16 1.58172 16 6C16 10.4183 12.4183 14 8 14H0V-2Z" fill="white"/>
</clipPath>
</defs>
</svg>
